<?xml version="1.0" encoding="utf-8"?>
<!DOCTYPE svg PUBLIC "-//W3C//DTD SVG 20010904//EN" "http://www.w3.org/TR/2001/REC-SVG-20010904/DTD/svg10.dtd">
<svg version="1.0" xmlns="http://www.w3.org/2000/svg" width="69px" height="51px" viewBox="0 0 69 51" preserveAspectRatio="xMidYMid meet">
 <g fill="#fefefe">
  <path d="M0 25.5 l0 -25.5 34.5 0 34.5 0 0 25.5 0 25.5 -3.3 0 -3.3 0 0.4 -20.3 c0.3 -14.3 0.1 -21 -0.7 -22.5 -1.2 -2.2 -1.5 -2.2 -27.4 -2.2 -19.1 0 -26.6 0.3 -27.5 1.2 -0.8 0.8 -1.2 6.8 -1.2 20.2 0 22 -0.3 23.6 -3.6 23.6 l-2.4 0 0 -25.5z"/>
 </g>
 <g fill="#f0f0f0">
  <path d="M1.7 48.3 c-0.3 -1.6 -0.1 -2.9 0.4 -3.1 0.5 -0.2 0.9 -1 0.9 -1.8 0 -1.9 3.6 -1.8 4.4 0.1 0.3 0.8 1.2 1.5 2.1 1.5 1 0 1.5 1 1.5 3 0 2.9 -0.2 3 -4.4 3 -4 0 -4.4 -0.2 -4.9 -2.7z"/>
  <path d="M56 48.2 c0 -2.4 0.6 -2.9 4.5 -4.1 2.5 -0.7 4.8 -1.1 5.1 -0.8 0.3 0.3 0.2 2.1 -0.1 4.1 -0.7 3.5 -0.9 3.6 -5.1 3.6 -4.1 0 -4.4 -0.2 -4.4 -2.8z"/>
 </g>
 <g fill="#dcdcdc">
  <path d="M8 49.5 c0 -0.8 -0.7 -1.5 -1.5 -1.5 -0.8 0 -1.5 -0.7 -1.5 -1.5 0 -1.3 3.8 -1.5 28.5 -1.5 24.7 0 28.5 0.2 28.5 1.5 0 0.8 -0.7 1.5 -1.5 1.5 -0.8 0 -1.5 0.7 -1.5 1.5 0 1.3 -3.5 1.5 -25.5 1.5 -22 0 -25.5 -0.2 -25.5 -1.5z"/>
 </g>
 <g fill="#fed62a">
  <path d="M23.5 31 c-0.7 -3.2 -1.4 -3.5 -9.2 -3 -4.3 0.2 -4.3 0.2 -4.3 -3.3 0 -1.9 -0.7 -4 -1.5 -4.7 -0.8 -0.7 -1.5 -2.8 -1.5 -4.6 0 -3.1 0.3 -3.4 2.8 -3.4 2.1 0 3.2 -0.7 4 -2.5 0.9 -2 1.9 -2.5 4.7 -2.5 2.6 0 3.5 0.4 3.6 1.8 0 0.9 0.5 0.2 1 -1.5 0.8 -2.9 1.4 -3.3 4.3 -3.3 4.9 0 6.6 0.9 6.6 3.5 0 1.4 0.7 2.5 2 2.8 1.8 0.5 2 1.4 2 9.1 0 7.9 -0.2 8.6 -2 8.6 -1.4 0 -2 0.7 -2 2.4 0 2.5 -2.1 3.6 -7.2 3.6 -2.1 0 -2.8 -0.6 -3.3 -3z m4.5 -9.5 c0 -0.8 -0.4 -1.5 -1 -1.5 -0.5 0 -1 0.7 -1 1.5 0 0.8 0.5 1.5 1 1.5 0.6 0 1 -0.7 1 -1.5z"/>
 </g>
 <g fill="#f24e38">
  <path d="M3 7.7 c0 -4.6 0.7 -4.7 31.7 -4.7 27.9 0 29.3 0.1 30.3 1.9 2.4 4.5 -0.8 7.2 -4.4 3.6 -2.2 -2.2 -53.6 -2.2 -53.6 0 0 0.8 -0.9 1.5 -2 1.5 -1.4 0 -2 -0.7 -2 -2.3z"/>
 </g>
 <g fill="#f0361c">
  <path d="M29 22.5 c0 -1 -1 -1.5 -3 -1.5 -3.5 0 -4.1 -2.4 -1.2 -4.6 1.5 -1.2 1.4 -1.3 -1.5 -1.4 -2.5 0 -3.3 -0.5 -4.1 -2.7 l-0.9 -2.8 -1.3 2.8 c-1 2.1 -2 2.7 -4.3 2.7 -2.8 0 -2.9 0.1 -1.4 1.8 2.1 2.4 0 4.2 -4.9 4.2 l-3.6 0 0.3 -7.9 c0.2 -4.4 0.7 -8.2 1 -8.5 0.7 -0.7 60 -0.9 60.7 -0.2 0.3 0.3 -0.1 0.6 -0.9 0.6 -1 0.1 -0.9 0.3 0.4 1.1 1.4 0.8 1.7 2.4 1.7 7.9 l0 7 -4.7 0.2 c-2.7 0.1 -8.8 0.3 -13.7 0.3 -5.9 0.1 -9.1 0.5 -9.4 1.3 -0.5 1.7 -3.2 1.5 -3.2 -0.2 0 -0.7 -0.9 -1.6 -2 -1.9 -1.5 -0.4 -2 0 -2 1.4 0 1 -0.4 1.9 -1 1.9 -0.5 0 -1 -0.7 -1 -1.5z m6 -6.9 c0 -1.8 -1.6 -2.9 -3 -2.1 -1.3 0.8 -0.1 3.5 1.6 3.5 0.8 0 1.4 -0.6 1.4 -1.4z m-4.7 -6 c0.3 -0.8 -0.1 -1.7 -1 -2.1 -2 -0.7 -3.7 1.6 -2 2.7 1.7 1.1 2.4 1 3 -0.6z"/>
 </g>
 <g fill="#df2b12">
  <path d="M4 46.1 c-0.5 -1.1 -1 -7.8 -1 -15 l0 -13.1 2.4 0 c1.3 0 2.6 -0.6 2.9 -1.2 0.3 -1 1.1 -0.9 3.3 0.4 1.6 1 2.8 2.1 2.8 2.5 -0.1 0.5 -0.5 1.9 -0.9 3.1 -0.7 2.3 -0.7 2.3 1.9 0.7 2.4 -1.6 2.8 -1.6 5.1 -0.1 2.8 1.8 2.9 1.8 1.5 -1.8 -0.8 -2.1 -0.6 -2.8 1.3 -4.1 1.3 -0.9 2.3 -1.1 2.5 -0.5 0.4 1.2 3.9 1.3 4.6 0.1 0.3 -0.5 1.5 -0.7 2.6 -0.4 l2 0.5 -2 1.8 c-2.6 2.2 -2.6 4.6 0 5.3 1.6 0.4 2 0 2 -2.3 0 -2.6 0.3 -2.8 4.8 -3.3 2.6 -0.3 9.5 -0.6 15.5 -0.6 l10.7 -0.1 0 14 c0 12.7 -0.2 14 -1.9 15 -1.2 0.6 -12.7 1 -30.5 1 -27.2 0 -28.6 -0.1 -29.6 -1.9z m26.3 -18.1 c-0.3 -1.1 -1.1 -1.6 -2.3 -1.3 -1.1 0.3 -1.6 1.1 -1.3 2.3 0.3 1.1 1.1 1.6 2.3 1.3 1.1 -0.3 1.6 -1.1 1.3 -2.3z"/>
 </g>
</svg>