<?xml version="1.0" standalone="no"?><!DOCTYPE svg PUBLIC "-//W3C//DTD SVG 1.1//EN" "http://www.w3.org/Graphics/SVG/1.1/DTD/svg11.dtd"><svg t="1620911528015" class="icon" viewBox="0 0 1024 1024" version="1.1" xmlns="http://www.w3.org/2000/svg" p-id="3347" xmlns:xlink="http://www.w3.org/1999/xlink" width="200" height="200"><defs><style type="text/css"></style></defs><path d="M98 98h829.99v829.99H98z" fill="#44FF02" p-id="3348"></path><path d="M141.34 141.04h741.52v741.52H141.34z" fill="#092600" p-id="3349"></path><path d="M192.89 332.62h50.22v357.96h-50.22V332.62z m33.97 310.2h81c26.42 0 46.9-6.85 61.42-20.56 14.52-13.7 21.79-33.03 21.79-57.98V458.92c0-24.95-7.26-44.27-21.79-57.98-14.53-13.7-35-20.56-61.42-20.56h-81v-47.76h79.52c28.72 0 53.26 5.01 73.61 15.02s35.86 24.62 46.53 43.82c10.67 19.2 16 42.34 16 69.43v101.43c0 27.08-5.34 50.22-16 69.43-10.67 19.2-26.22 33.81-46.65 43.82-20.43 10.01-45.01 15.02-73.73 15.02h-79.27v-47.77zM471.47 435.04h52.44l45.3 182.43 63.76-182.43h34.96l63.76 182.43 45.3-182.43h52.44l-78.78 255.54h-37.91l-62.29-176.52-62.29 176.52h-37.91l-78.78-255.54z" fill="#44FF02" p-id="3350"></path></svg>