<?xml version="1.0" standalone="no"?><!DOCTYPE svg PUBLIC "-//W3C//DTD SVG 1.1//EN" "http://www.w3.org/Graphics/SVG/1.1/DTD/svg11.dtd"><svg t="1620964507928" class="icon" viewBox="0 0 1024 1024" version="1.1" xmlns="http://www.w3.org/2000/svg" p-id="6598" xmlns:xlink="http://www.w3.org/1999/xlink" width="200" height="200"><defs><style type="text/css"></style></defs><path d="M960.032 512h-896c-11.812 0-21.376 9.546-21.376 21.328s9.562 21.344 21.376 21.344h896c11.75 0 21.312-9.562 21.312-21.344S971.782 512 960.032 512z" fill="#37BC9B" p-id="6599"></path><path d="M253.094 11.282A21.326 21.326 0 0 0 234.282 0c-11.75 0-21.312 9.546-21.312 21.328 0 4.078 1.124 7.876 3.124 11.11 18.25 32.266 34.562 65.578 48.938 99.562 50.938 120.328 76.688 248.188 76.688 380s-25.75 259.672-76.688 380c-14.376 33.984-30.688 67.296-48.938 99.546a21.1 21.1 0 0 0-3.124 11.124c0 11.782 9.562 21.328 21.312 21.328 8.124 0 15.25-4.578 18.812-11.282 83.624-147.89 131.312-318.734 131.312-500.718S336.718 159.172 253.094 11.282zM770.906 1012.718c3.624 6.704 10.688 11.282 18.812 11.282 11.812 0 21.376-9.546 21.376-21.328 0-4.078-1.188-7.876-3.188-11.124a980.592 980.592 0 0 1-48.938-99.546c-50.876-120.328-76.688-248.188-76.688-380s25.812-259.672 76.688-380a982.5 982.5 0 0 1 48.938-99.562 21.06 21.06 0 0 0 3.188-11.11C811.094 9.546 801.532 0 789.718 0c-8.124 0-15.188 4.578-18.812 11.282C687.344 159.172 639.594 330.016 639.594 512s47.75 352.828 131.312 500.718z" fill="#48CFAD" p-id="6600"></path></svg>