<?xml version="1.0" standalone="no"?><!DOCTYPE svg PUBLIC "-//W3C//DTD SVG 1.1//EN" "http://www.w3.org/Graphics/SVG/1.1/DTD/svg11.dtd"><svg t="1620964469084" class="icon" viewBox="0 0 1024 1024" version="1.1" xmlns="http://www.w3.org/2000/svg" p-id="5266" xmlns:xlink="http://www.w3.org/1999/xlink" width="200" height="200"><defs><style type="text/css"></style></defs><path d="M906.666667 407.466667l-46.933334 46.933333c6.4 17.066667 6.4 40.533333 6.4 57.6 0 179.2-138.666667 334.933333-317.866666 347.733333C366.933333 876.8 198.4 755.2 170.666667 576c-34.133333-172.8 70.4-354.133333 243.2-405.333333 172.8-51.2 358.4 34.133333 428.8 209.066666l34.133333-40.533333C812.8 204.8 674.133333 106.666667 512 106.666667c-106.666667 0-211.2 42.666667-288 117.333333S106.666667 403.2 106.666667 512s42.666667 211.2 117.333333 288C300.8 874.666667 405.333333 917.333333 512 917.333333s211.2-42.666667 288-117.333333C874.666667 723.2 917.333333 618.666667 917.333333 512c0-34.133333-6.4-70.4-10.666666-104.533333z m-93.866667 0c-46.933333-121.6-162.133333-213.333333-300.8-213.333334-172.8 0-317.866667 145.066667-317.866667 317.866667S339.2 829.866667 512 829.866667 829.866667 684.8 829.866667 512v-29.866667L593.066667 721.066667v-185.6L384 744.533333v-209.066666h-91.733333v-64H448v110.933333l209.066667-209.066667v192l155.733333-157.866666z" p-id="5267"></path></svg>